<svg width="845" height="497" viewBox="0 0 845 497" fill="none" xmlns="http://www.w3.org/2000/svg">
<rect width="845" height="497" fill="#F5F5F5"/>
<rect width="845" height="496" fill="#D9D9D9"/>
<line x1="280.5" y1="496.001" x2="279.5" y2="0.00100616" stroke="black"/>
<line x1="280" y1="142.5" x2="845.001" y2="142.5" stroke="black"/>
<line x1="280" y1="386.5" x2="845.001" y2="386.5" stroke="black"/>
<path d="M121.716 237.091C121.631 236.371 121.285 235.812 120.679 235.415C120.073 235.017 119.33 234.818 118.449 234.818C117.805 234.818 117.241 234.922 116.759 235.131C116.28 235.339 115.906 235.625 115.636 235.99C115.371 236.355 115.239 236.769 115.239 237.233C115.239 237.621 115.331 237.955 115.516 238.234C115.705 238.509 115.946 238.739 116.24 238.923C116.534 239.103 116.841 239.252 117.163 239.371C117.485 239.484 117.781 239.577 118.051 239.648L119.528 240.045C119.907 240.145 120.329 240.282 120.793 240.457C121.261 240.633 121.709 240.872 122.135 241.175C122.566 241.473 122.921 241.857 123.2 242.325C123.48 242.794 123.619 243.369 123.619 244.051C123.619 244.837 123.413 245.547 123.001 246.182C122.594 246.816 121.998 247.321 121.212 247.695C120.43 248.069 119.481 248.256 118.364 248.256C117.322 248.256 116.42 248.088 115.658 247.751C114.9 247.415 114.304 246.946 113.868 246.345C113.437 245.744 113.193 245.045 113.136 244.25H114.955C115.002 244.799 115.187 245.254 115.509 245.614C115.835 245.969 116.247 246.234 116.744 246.409C117.246 246.58 117.786 246.665 118.364 246.665C119.036 246.665 119.64 246.556 120.175 246.338C120.71 246.116 121.134 245.808 121.446 245.415C121.759 245.017 121.915 244.553 121.915 244.023C121.915 243.54 121.78 243.147 121.51 242.844C121.24 242.541 120.885 242.295 120.445 242.105C120.004 241.916 119.528 241.75 119.017 241.608L117.227 241.097C116.091 240.77 115.191 240.304 114.528 239.697C113.866 239.091 113.534 238.298 113.534 237.318C113.534 236.504 113.754 235.794 114.195 235.188C114.64 234.577 115.236 234.103 115.984 233.767C116.737 233.426 117.578 233.256 118.506 233.256C119.443 233.256 120.277 233.424 121.006 233.76C121.735 234.091 122.313 234.546 122.739 235.124C123.17 235.701 123.397 236.357 123.42 237.091H121.716ZM126.288 248V237.091H127.964V248H126.288ZM127.14 235.273C126.814 235.273 126.532 235.161 126.295 234.939C126.063 234.716 125.947 234.449 125.947 234.136C125.947 233.824 126.063 233.556 126.295 233.334C126.532 233.111 126.814 233 127.14 233C127.467 233 127.746 233.111 127.978 233.334C128.215 233.556 128.333 233.824 128.333 234.136C128.333 234.449 128.215 234.716 127.978 234.939C127.746 235.161 127.467 235.273 127.14 235.273ZM135.153 248.227C134.244 248.227 133.442 247.998 132.746 247.538C132.05 247.074 131.505 246.421 131.112 245.578C130.719 244.731 130.523 243.729 130.523 242.574C130.523 241.428 130.719 240.434 131.112 239.591C131.505 238.748 132.052 238.097 132.753 237.638C133.454 237.179 134.263 236.949 135.182 236.949C135.892 236.949 136.453 237.067 136.865 237.304C137.282 237.536 137.599 237.801 137.817 238.099C138.039 238.393 138.212 238.634 138.335 238.824H138.477V233.455H140.153V248H138.534V246.324H138.335C138.212 246.523 138.037 246.774 137.81 247.077C137.582 247.375 137.258 247.643 136.837 247.879C136.415 248.111 135.854 248.227 135.153 248.227ZM135.381 246.722C136.053 246.722 136.621 246.546 137.085 246.196C137.549 245.841 137.902 245.351 138.143 244.726C138.385 244.096 138.506 243.369 138.506 242.545C138.506 241.731 138.387 241.018 138.151 240.408C137.914 239.792 137.563 239.314 137.099 238.973C136.635 238.627 136.063 238.455 135.381 238.455C134.67 238.455 134.079 238.637 133.605 239.001C133.136 239.361 132.784 239.851 132.547 240.472C132.315 241.087 132.199 241.778 132.199 242.545C132.199 243.322 132.317 244.027 132.554 244.662C132.795 245.292 133.151 245.794 133.619 246.168C134.093 246.537 134.68 246.722 135.381 246.722ZM148.03 248.227C146.979 248.227 146.072 247.995 145.31 247.531C144.552 247.062 143.967 246.409 143.555 245.571C143.148 244.728 142.945 243.748 142.945 242.631C142.945 241.513 143.148 240.528 143.555 239.676C143.967 238.819 144.54 238.152 145.274 237.673C146.013 237.19 146.875 236.949 147.859 236.949C148.428 236.949 148.989 237.044 149.543 237.233C150.097 237.422 150.601 237.73 151.055 238.156C151.51 238.578 151.872 239.136 152.142 239.832C152.412 240.528 152.547 241.385 152.547 242.403V243.114H144.138V241.665H150.842C150.842 241.049 150.719 240.5 150.473 240.017C150.232 239.534 149.886 239.153 149.436 238.874C148.991 238.594 148.465 238.455 147.859 238.455C147.192 238.455 146.614 238.62 146.126 238.952C145.643 239.278 145.272 239.705 145.011 240.23C144.751 240.756 144.621 241.319 144.621 241.92V242.886C144.621 243.71 144.763 244.409 145.047 244.982C145.336 245.55 145.736 245.983 146.247 246.281C146.759 246.575 147.353 246.722 148.03 246.722C148.47 246.722 148.868 246.66 149.223 246.537C149.583 246.409 149.893 246.22 150.153 245.969C150.414 245.713 150.615 245.396 150.757 245.017L152.376 245.472C152.206 246.021 151.92 246.504 151.517 246.92C151.115 247.332 150.617 247.654 150.026 247.886C149.434 248.114 148.768 248.227 148.03 248.227ZM155.324 248V233.455H157V238.824H157.142C157.265 238.634 157.436 238.393 157.653 238.099C157.876 237.801 158.193 237.536 158.605 237.304C159.022 237.067 159.585 236.949 160.295 236.949C161.214 236.949 162.024 237.179 162.724 237.638C163.425 238.097 163.972 238.748 164.365 239.591C164.758 240.434 164.955 241.428 164.955 242.574C164.955 243.729 164.758 244.731 164.365 245.578C163.972 246.421 163.428 247.074 162.732 247.538C162.036 247.998 161.233 248.227 160.324 248.227C159.623 248.227 159.062 248.111 158.641 247.879C158.219 247.643 157.895 247.375 157.668 247.077C157.44 246.774 157.265 246.523 157.142 246.324H156.943V248H155.324ZM156.972 242.545C156.972 243.369 157.092 244.096 157.334 244.726C157.575 245.351 157.928 245.841 158.392 246.196C158.856 246.546 159.424 246.722 160.097 246.722C160.797 246.722 161.382 246.537 161.851 246.168C162.324 245.794 162.679 245.292 162.916 244.662C163.158 244.027 163.278 243.322 163.278 242.545C163.278 241.778 163.16 241.087 162.923 240.472C162.691 239.851 162.339 239.361 161.865 239.001C161.396 238.637 160.807 238.455 160.097 238.455C159.415 238.455 158.842 238.627 158.378 238.973C157.914 239.314 157.563 239.792 157.327 240.408C157.09 241.018 156.972 241.731 156.972 242.545ZM170.729 248.256C170.037 248.256 169.41 248.125 168.847 247.865C168.283 247.6 167.836 247.219 167.504 246.722C167.173 246.22 167.007 245.614 167.007 244.903C167.007 244.278 167.13 243.772 167.376 243.384C167.623 242.991 167.952 242.683 168.364 242.46C168.776 242.238 169.23 242.072 169.727 241.963C170.229 241.849 170.733 241.759 171.24 241.693C171.903 241.608 172.44 241.544 172.852 241.501C173.269 241.454 173.572 241.376 173.761 241.267C173.955 241.158 174.053 240.969 174.053 240.699V240.642C174.053 239.941 173.861 239.397 173.477 239.009C173.098 238.62 172.523 238.426 171.751 238.426C170.951 238.426 170.324 238.601 169.869 238.952C169.415 239.302 169.095 239.676 168.911 240.074L167.32 239.506C167.604 238.843 167.982 238.327 168.456 237.957C168.934 237.583 169.455 237.323 170.018 237.176C170.587 237.025 171.145 236.949 171.695 236.949C172.045 236.949 172.447 236.991 172.902 237.077C173.361 237.157 173.804 237.325 174.23 237.581C174.661 237.837 175.018 238.223 175.303 238.739C175.587 239.255 175.729 239.946 175.729 240.812V248H174.053V246.523H173.967C173.854 246.759 173.664 247.013 173.399 247.283C173.134 247.553 172.781 247.782 172.341 247.972C171.901 248.161 171.363 248.256 170.729 248.256ZM170.984 246.75C171.647 246.75 172.206 246.62 172.661 246.359C173.12 246.099 173.465 245.763 173.697 245.351C173.934 244.939 174.053 244.506 174.053 244.051V242.517C173.982 242.602 173.825 242.68 173.584 242.751C173.347 242.818 173.072 242.877 172.76 242.929C172.452 242.976 172.152 243.019 171.858 243.057C171.569 243.09 171.335 243.118 171.155 243.142C170.719 243.199 170.312 243.291 169.933 243.419C169.559 243.542 169.256 243.729 169.024 243.98C168.797 244.226 168.683 244.562 168.683 244.989C168.683 245.571 168.899 246.011 169.33 246.31C169.765 246.603 170.317 246.75 170.984 246.75ZM178.788 248V237.091H180.407V238.739H180.521C180.72 238.199 181.08 237.761 181.6 237.425C182.121 237.089 182.708 236.92 183.362 236.92C183.485 236.92 183.639 236.923 183.824 236.928C184.008 236.932 184.148 236.939 184.243 236.949V238.653C184.186 238.639 184.056 238.618 183.852 238.589C183.653 238.556 183.442 238.54 183.22 238.54C182.69 238.54 182.216 238.651 181.799 238.874C181.387 239.091 181.061 239.394 180.819 239.783C180.583 240.166 180.464 240.604 180.464 241.097V248H178.788Z" fill="black"/>
<path d="M546.761 66.4545H548.864L553.807 78.5284H553.977L558.92 66.4545H561.023V81H559.375V69.9489H559.233L554.688 81H553.097L548.551 69.9489H548.409V81H546.761V66.4545ZM567.537 81.2557C566.846 81.2557 566.219 81.1255 565.655 80.8651C565.092 80.5999 564.644 80.2188 564.313 79.7216C563.981 79.2197 563.816 78.6136 563.816 77.9034C563.816 77.2784 563.939 76.7718 564.185 76.3835C564.431 75.9905 564.76 75.6828 565.172 75.4602C565.584 75.2377 566.039 75.072 566.536 74.9631C567.038 74.8494 567.542 74.7595 568.049 74.6932C568.712 74.608 569.249 74.544 569.661 74.5014C570.078 74.4541 570.381 74.3759 570.57 74.267C570.764 74.1581 570.861 73.9687 570.861 73.6989V73.642C570.861 72.9413 570.669 72.3968 570.286 72.0085C569.907 71.6203 569.332 71.4261 568.56 71.4261C567.76 71.4261 567.132 71.6013 566.678 71.9517C566.223 72.3021 565.904 72.6761 565.719 73.0739L564.128 72.5057C564.412 71.8428 564.791 71.3267 565.265 70.9574C565.743 70.5833 566.264 70.3229 566.827 70.1761C567.395 70.0246 567.954 69.9489 568.503 69.9489C568.854 69.9489 569.256 69.9915 569.711 70.0767C570.17 70.1572 570.613 70.3253 571.039 70.581C571.47 70.8366 571.827 71.2225 572.111 71.7386C572.395 72.2547 572.537 72.946 572.537 73.8125V81H570.861V79.5227H570.776C570.662 79.7595 570.473 80.0128 570.208 80.2827C569.943 80.5526 569.59 80.7822 569.15 80.9716C568.709 81.161 568.172 81.2557 567.537 81.2557ZM567.793 79.75C568.456 79.75 569.015 79.6198 569.469 79.3594C569.928 79.099 570.274 78.7628 570.506 78.3509C570.743 77.9389 570.861 77.5057 570.861 77.0511V75.517C570.79 75.6023 570.634 75.6804 570.392 75.7514C570.156 75.8177 569.881 75.8769 569.569 75.929C569.261 75.9763 568.96 76.0189 568.667 76.0568C568.378 76.09 568.143 76.1184 567.963 76.142C567.528 76.1989 567.121 76.2912 566.742 76.419C566.368 76.5421 566.065 76.7292 565.833 76.9801C565.605 77.2263 565.492 77.5625 565.492 77.9886C565.492 78.571 565.707 79.0114 566.138 79.3097C566.574 79.6032 567.125 79.75 567.793 79.75ZM575.597 81V70.0909H577.273V81H575.597ZM576.449 68.2727C576.122 68.2727 575.84 68.1615 575.604 67.9389C575.372 67.7164 575.256 67.4489 575.256 67.1364C575.256 66.8239 575.372 66.5563 575.604 66.3338C575.84 66.1113 576.122 66 576.449 66C576.776 66 577.055 66.1113 577.287 66.3338C577.524 66.5563 577.642 66.8239 577.642 67.1364C577.642 67.4489 577.524 67.7164 577.287 67.9389C577.055 68.1615 576.776 68.2727 576.449 68.2727ZM582.019 74.4375V81H580.343V70.0909H581.962V71.7955H582.104C582.36 71.2415 582.748 70.7964 583.269 70.4602C583.79 70.1193 584.462 69.9489 585.286 69.9489C586.025 69.9489 586.671 70.1004 587.225 70.4034C587.779 70.7017 588.21 71.1562 588.517 71.767C588.825 72.3731 588.979 73.1402 588.979 74.0682V81H587.303V74.1818C587.303 73.3248 587.08 72.6572 586.635 72.179C586.19 71.696 585.579 71.4545 584.803 71.4545C584.268 71.4545 583.79 71.5705 583.368 71.8026C582.952 72.0346 582.623 72.3731 582.381 72.8182C582.14 73.2633 582.019 73.803 582.019 74.4375Z" fill="black"/>
<path d="M401.761 262V247.455H410.483V249.017H403.523V253.932H409.83V255.494H403.523V262H401.761ZM416.903 262.227C415.919 262.227 415.054 261.993 414.311 261.524C413.572 261.055 412.995 260.4 412.578 259.557C412.166 258.714 411.96 257.729 411.96 256.602C411.96 255.466 412.166 254.474 412.578 253.626C412.995 252.779 413.572 252.121 414.311 251.652C415.054 251.183 415.919 250.949 416.903 250.949C417.888 250.949 418.75 251.183 419.489 251.652C420.232 252.121 420.81 252.779 421.222 253.626C421.638 254.474 421.847 255.466 421.847 256.602C421.847 257.729 421.638 258.714 421.222 259.557C420.81 260.4 420.232 261.055 419.489 261.524C418.75 261.993 417.888 262.227 416.903 262.227ZM416.903 260.722C417.652 260.722 418.267 260.53 418.75 260.146C419.233 259.763 419.59 259.259 419.822 258.634C420.054 258.009 420.17 257.331 420.17 256.602C420.17 255.873 420.054 255.194 419.822 254.564C419.59 253.934 419.233 253.425 418.75 253.037C418.267 252.649 417.652 252.455 416.903 252.455C416.155 252.455 415.54 252.649 415.057 253.037C414.574 253.425 414.216 253.934 413.984 254.564C413.752 255.194 413.636 255.873 413.636 256.602C413.636 257.331 413.752 258.009 413.984 258.634C414.216 259.259 414.574 259.763 415.057 260.146C415.54 260.53 416.155 260.722 416.903 260.722ZM424.405 262V251.091H426.025V252.739H426.138C426.337 252.199 426.697 251.761 427.218 251.425C427.739 251.089 428.326 250.92 428.979 250.92C429.102 250.92 429.256 250.923 429.441 250.928C429.625 250.932 429.765 250.939 429.86 250.949V252.653C429.803 252.639 429.673 252.618 429.469 252.589C429.27 252.556 429.06 252.54 428.837 252.54C428.307 252.54 427.833 252.651 427.417 252.874C427.005 253.091 426.678 253.394 426.436 253.783C426.2 254.166 426.081 254.604 426.081 255.097V262H424.405ZM431.847 262V251.091H433.466V252.795H433.608C433.835 252.213 434.202 251.761 434.709 251.439C435.215 251.112 435.824 250.949 436.534 250.949C437.254 250.949 437.853 251.112 438.331 251.439C438.814 251.761 439.19 252.213 439.46 252.795H439.574C439.853 252.232 440.272 251.785 440.831 251.453C441.39 251.117 442.06 250.949 442.841 250.949C443.816 250.949 444.614 251.254 445.234 251.865C445.855 252.471 446.165 253.416 446.165 254.699V262H444.489V254.699C444.489 253.894 444.268 253.319 443.828 252.973C443.388 252.627 442.869 252.455 442.273 252.455C441.506 252.455 440.911 252.687 440.49 253.151C440.069 253.61 439.858 254.192 439.858 254.898V262H438.153V254.528C438.153 253.908 437.952 253.409 437.55 253.03C437.147 252.646 436.629 252.455 435.994 252.455C435.559 252.455 435.152 252.571 434.773 252.803C434.399 253.035 434.096 253.357 433.864 253.768C433.636 254.176 433.523 254.647 433.523 255.182V262H431.847Z" fill="black"/>
<path d="M400.761 446V431.455H405.847C406.86 431.455 407.696 431.63 408.354 431.98C409.012 432.326 409.502 432.792 409.824 433.379C410.146 433.962 410.307 434.608 410.307 435.318C410.307 435.943 410.196 436.459 409.973 436.866C409.755 437.274 409.466 437.596 409.107 437.832C408.751 438.069 408.366 438.244 407.949 438.358V438.5C408.394 438.528 408.841 438.685 409.291 438.969C409.741 439.253 410.117 439.66 410.42 440.19C410.723 440.721 410.875 441.369 410.875 442.136C410.875 442.866 410.709 443.521 410.378 444.104C410.046 444.686 409.523 445.148 408.808 445.489C408.093 445.83 407.163 446 406.017 446H400.761ZM402.523 444.438H406.017C407.168 444.438 407.984 444.215 408.467 443.77C408.955 443.32 409.199 442.776 409.199 442.136C409.199 441.644 409.073 441.189 408.822 440.773C408.571 440.351 408.214 440.015 407.75 439.764C407.286 439.509 406.737 439.381 406.102 439.381H402.523V444.438ZM402.523 437.847H405.79C406.32 437.847 406.798 437.742 407.224 437.534C407.655 437.326 407.996 437.032 408.247 436.653C408.503 436.275 408.631 435.83 408.631 435.318C408.631 434.679 408.408 434.137 407.963 433.692C407.518 433.242 406.813 433.017 405.847 433.017H402.523V437.847ZM420.417 441.54V435.091H422.093V446H420.417V444.153H420.303C420.048 444.707 419.65 445.179 419.11 445.567C418.57 445.95 417.888 446.142 417.065 446.142C416.383 446.142 415.777 445.993 415.246 445.695C414.716 445.392 414.299 444.937 413.996 444.331C413.693 443.72 413.542 442.951 413.542 442.023V435.091H415.218V441.909C415.218 442.705 415.441 443.339 415.886 443.812C416.335 444.286 416.908 444.523 417.604 444.523C418.021 444.523 418.445 444.416 418.876 444.203C419.311 443.99 419.676 443.663 419.969 443.223C420.268 442.783 420.417 442.222 420.417 441.54ZM429.907 435.091V436.511H424.254V435.091H429.907ZM425.902 432.477H427.578V442.875C427.578 443.348 427.646 443.704 427.784 443.94C427.926 444.172 428.106 444.329 428.324 444.409C428.546 444.485 428.78 444.523 429.027 444.523C429.211 444.523 429.363 444.513 429.481 444.494C429.6 444.471 429.694 444.452 429.765 444.438L430.106 445.943C429.993 445.986 429.834 446.028 429.63 446.071C429.427 446.118 429.169 446.142 428.856 446.142C428.383 446.142 427.919 446.04 427.464 445.837C427.014 445.633 426.64 445.323 426.342 444.906C426.048 444.49 425.902 443.964 425.902 443.33V432.477ZM437.173 435.091V436.511H431.52V435.091H437.173ZM433.167 432.477H434.843V442.875C434.843 443.348 434.912 443.704 435.049 443.94C435.191 444.172 435.371 444.329 435.589 444.409C435.812 444.485 436.046 444.523 436.292 444.523C436.477 444.523 436.628 444.513 436.747 444.494C436.865 444.471 436.96 444.452 437.031 444.438L437.372 445.943C437.258 445.986 437.1 446.028 436.896 446.071C436.692 446.118 436.434 446.142 436.122 446.142C435.648 446.142 435.184 446.04 434.73 445.837C434.28 445.633 433.906 445.323 433.608 444.906C433.314 444.49 433.167 443.964 433.167 443.33V432.477ZM444.009 446.227C443.024 446.227 442.16 445.993 441.417 445.524C440.678 445.055 440.1 444.4 439.684 443.557C439.272 442.714 439.066 441.729 439.066 440.602C439.066 439.466 439.272 438.474 439.684 437.626C440.1 436.779 440.678 436.121 441.417 435.652C442.16 435.183 443.024 434.949 444.009 434.949C444.994 434.949 445.855 435.183 446.594 435.652C447.337 436.121 447.915 436.779 448.327 437.626C448.744 438.474 448.952 439.466 448.952 440.602C448.952 441.729 448.744 442.714 448.327 443.557C447.915 444.4 447.337 445.055 446.594 445.524C445.855 445.993 444.994 446.227 444.009 446.227ZM444.009 444.722C444.757 444.722 445.373 444.53 445.855 444.146C446.338 443.763 446.696 443.259 446.928 442.634C447.16 442.009 447.276 441.331 447.276 440.602C447.276 439.873 447.16 439.194 446.928 438.564C446.696 437.934 446.338 437.425 445.855 437.037C445.373 436.649 444.757 436.455 444.009 436.455C443.261 436.455 442.645 436.649 442.162 437.037C441.679 437.425 441.322 437.934 441.09 438.564C440.858 439.194 440.742 439.873 440.742 440.602C440.742 441.331 440.858 442.009 441.09 442.634C441.322 443.259 441.679 443.763 442.162 444.146C442.645 444.53 443.261 444.722 444.009 444.722ZM453.187 439.438V446H451.511V435.091H453.13V436.795H453.272C453.528 436.241 453.916 435.796 454.437 435.46C454.958 435.119 455.63 434.949 456.454 434.949C457.192 434.949 457.839 435.1 458.393 435.403C458.947 435.702 459.378 436.156 459.685 436.767C459.993 437.373 460.147 438.14 460.147 439.068V446H458.471V439.182C458.471 438.325 458.248 437.657 457.803 437.179C457.358 436.696 456.747 436.455 455.971 436.455C455.436 436.455 454.958 436.571 454.536 436.803C454.12 437.035 453.79 437.373 453.549 437.818C453.308 438.263 453.187 438.803 453.187 439.438Z" fill="black"/>
</svg>
